<?xml version="1.0" standalone="no"?>
<!DOCTYPE svg PUBLIC "-//W3C//DTD SVG 20010904//EN"
 "http://www.w3.org/TR/2001/REC-SVG-20010904/DTD/svg10.dtd">
<svg version="1.0" xmlns="http://www.w3.org/2000/svg"
 width="2493.000000pt" height="507.000000pt" viewBox="0 0 2493.000000 507.000000"
 preserveAspectRatio="xMidYMid meet">

<g transform="translate(0.000000,507.000000) scale(0.100000,-0.100000)"
fill="#000000" stroke="none">
<path d="M4435 4639 c-173 -24 -355 -82 -481 -156 -112 -65 -239 -195 -287
-293 -51 -104 -68 -178 -68 -295 -1 -176 47 -311 152 -429 155 -173 398 -273
846 -347 350 -57 504 -109 593 -198 97 -97 88 -241 -22 -336 -109 -93 -286
-145 -499 -145 -195 0 -370 40 -529 120 -87 44 -219 143 -313 234 l-86 84
-132 -176 c-72 -96 -134 -183 -136 -192 -5 -18 98 -119 200 -196 134 -100 301
-180 480 -229 287 -78 674 -80 945 -4 442 123 694 456 645 850 -32 250 -204
417 -543 528 -123 40 -226 63 -440 101 -216 37 -297 55 -380 82 -185 60 -289
159 -290 277 0 110 50 180 173 241 95 47 181 67 322 76 278 17 563 -90 752
-283 l52 -53 146 161 146 160 -29 37 c-141 178 -396 316 -677 368 -107 19
-436 27 -540 13z"/>
<path d="M19894 4630 c-351 -37 -686 -191 -914 -420 -306 -307 -425 -709 -340
-1150 33 -172 87 -303 184 -450 193 -289 523 -490 922 -561 155 -28 437 -30
598 -5 604 94 978 418 1062 918 13 80 16 136 11 255 -3 84 -9 158 -12 163 -4
6 -246 10 -671 10 l-664 0 0 -210 0 -210 430 0 c349 0 430 -2 430 -13 0 -34
-36 -127 -67 -174 -114 -173 -364 -290 -669 -312 -517 -39 -936 207 -1054 619
-28 96 -38 293 -20 394 82 472 591 784 1140 702 210 -32 400 -113 580 -248
l65 -49 50 54 c28 29 95 101 149 160 l99 108 -39 41 c-143 149 -421 290 -685
346 -182 40 -400 51 -585 32z"/>
<path d="M330 3862 c0 -456 4 -781 10 -832 55 -446 330 -784 750 -924 246 -82
560 -88 820 -16 114 32 302 128 396 204 208 167 342 397 388 665 14 82 16 201
16 873 l0 778 -225 0 -225 0 0 -719 c0 -456 -4 -748 -11 -798 -40 -292 -231
-507 -524 -590 -82 -23 -248 -28 -341 -10 -227 43 -409 181 -506 382 -68 143
-68 133 -68 978 l0 757 -240 0 -240 0 0 -748z"/>
<path d="M6560 3862 c0 -456 4 -781 10 -832 55 -446 330 -784 750 -924 246
-82 560 -88 820 -16 114 32 302 128 396 204 208 167 342 397 388 665 14 82 16
201 16 873 l0 778 -225 0 -225 0 0 -719 c0 -456 -4 -748 -11 -798 -40 -292
-231 -507 -524 -590 -82 -23 -248 -28 -341 -10 -227 43 -409 181 -506 382 -68
143 -68 133 -68 978 l0 757 -240 0 -240 0 0 -748z"/>
<path d="M9947 4603 c-4 -3 -7 -577 -7 -1275 l0 -1268 235 0 235 0 0 460 0
460 328 0 327 -1 308 -459 308 -460 280 0 c221 0 279 3 273 13 -4 6 -153 227
-332 490 -178 263 -322 480 -320 482 1 1 32 17 68 35 307 153 491 464 466 787
-26 321 -236 584 -556 695 -126 44 -206 48 -926 48 -374 0 -684 -3 -687 -7z
m1410 -452 c127 -46 228 -144 259 -250 23 -77 15 -190 -18 -261 -39 -85 -107
-153 -196 -197 l-76 -38 -458 -3 -458 -3 0 391 0 391 443 -3 c431 -4 444 -4
504 -27z"/>
<path d="M13114 4597 c-2 -7 -3 -105 -2 -217 l3 -205 283 -3 282 -2 -2 -838
-3 -837 -282 -3 -283 -2 0 -215 0 -215 800 0 800 0 0 215 0 215 -280 0 -280 0
0 840 0 840 280 0 280 0 0 220 0 220 -795 0 c-636 0 -797 -3 -801 -13z"/>
<path d="M16541 4583 c-63 -137 -1121 -2515 -1121 -2518 0 -3 107 -5 239 -5
l239 0 123 280 124 279 635 0 635 0 124 -279 123 -280 249 0 249 0 -9 23 c-5
12 -259 585 -564 1272 l-556 1250 -239 3 -239 2 -12 -27z m303 -659 c33 -86
132 -322 222 -523 l163 -366 -446 -3 c-245 -1 -448 -1 -449 1 -2 2 65 158 150
348 135 305 237 548 277 662 7 20 16 37 19 37 3 0 32 -70 64 -156z"/>
<path d="M23011 4583 c-63 -137 -1121 -2515 -1121 -2518 0 -3 107 -5 239 -5
l239 0 123 280 124 279 635 0 635 0 124 -279 123 -280 249 0 249 0 -9 23 c-5
12 -259 585 -564 1272 l-556 1250 -239 3 -239 2 -12 -27z m303 -659 c33 -86
132 -322 222 -523 l163 -366 -446 -3 c-245 -1 -448 -1 -449 1 -2 2 65 158 150
348 135 305 237 548 277 662 7 20 16 37 19 37 3 0 32 -70 64 -156z"/>
<path d="M21684 1626 c-44 -20 -64 -53 -64 -107 0 -58 26 -94 80 -110 107 -32
200 50 167 148 -7 20 -24 45 -38 56 -34 25 -105 31 -145 13z"/>
<path d="M16760 945 l0 -615 100 0 100 0 0 615 0 615 -100 0 -100 0 0 -615z"/>
<path d="M17460 945 l0 -615 100 0 100 0 0 615 0 615 -100 0 -100 0 0 -615z"/>
<path d="M14429 1500 c-206 -33 -381 -154 -472 -328 -87 -164 -87 -351 -2
-530 43 -91 150 -202 240 -249 244 -128 558 -97 795 79 l22 16 -52 86 c-34 57
-55 84 -63 79 -7 -5 -39 -25 -71 -47 -78 -51 -155 -78 -243 -84 -232 -16 -422
113 -463 313 -55 269 184 500 474 458 85 -12 189 -57 252 -109 l43 -34 67 82
66 83 -43 38 c-53 47 -182 110 -269 131 -84 20 -210 27 -281 16z"/>
<path d="M20760 1330 l0 -130 -115 0 -115 0 0 -90 0 -90 115 0 115 0 0 -345 0
-345 105 0 105 0 0 345 0 345 130 0 130 0 0 90 0 90 -130 0 -129 0 -3 128 -3
127 -102 3 -103 3 0 -131z"/>
<path d="M15676 1204 c-145 -35 -289 -151 -337 -271 -20 -48 -24 -77 -24 -168
0 -105 2 -114 34 -179 60 -122 178 -215 322 -252 78 -21 243 -23 319 -5 304
73 461 370 334 630 -57 116 -200 221 -342 250 -72 15 -234 12 -306 -5z m274
-180 c95 -28 154 -76 189 -154 40 -87 23 -192 -42 -266 -61 -70 -124 -97 -234
-102 -108 -5 -174 12 -244 63 -117 85 -135 270 -36 373 89 92 233 126 367 86z"/>
<path d="M18390 1205 c-88 -25 -157 -63 -224 -125 -101 -95 -142 -204 -134
-351 9 -154 100 -281 252 -353 99 -47 164 -60 291 -59 122 1 247 31 337 80 76
41 76 44 28 118 -23 36 -44 65 -45 65 -2 0 -38 -17 -81 -37 l-79 -38 -135 0
c-119 0 -142 3 -194 24 -68 27 -146 98 -164 149 l-11 32 395 0 394 0 0 83 c0
46 -6 105 -14 132 -34 111 -130 209 -257 262 -55 22 -81 27 -184 30 -85 2
-136 -2 -175 -12z m295 -187 c74 -28 135 -88 135 -134 l0 -24 -290 0 c-196 0
-290 3 -290 10 0 41 74 119 138 146 85 36 216 37 307 2z"/>
<path d="M19683 1205 c-164 -45 -290 -160 -335 -308 -30 -100 -22 -221 19
-309 84 -175 251 -272 468 -272 120 1 200 20 311 75 122 60 123 61 62 142 -27
37 -54 67 -58 67 -4 0 -34 -16 -66 -35 -80 -49 -142 -65 -243 -65 -95 0 -155
21 -219 75 -117 98 -108 309 16 402 130 98 352 76 489 -50 13 -11 24 -19 26
-16 58 70 105 144 99 154 -27 47 -137 107 -248 135 -92 24 -243 26 -321 5z"/>
<path d="M22626 1204 c-145 -35 -289 -151 -337 -271 -20 -48 -24 -77 -24 -168
0 -105 2 -114 34 -179 60 -122 178 -215 322 -252 78 -21 243 -23 319 -5 304
73 461 370 334 630 -57 116 -200 221 -342 250 -72 15 -234 12 -306 -5z m274
-180 c95 -28 154 -76 189 -154 40 -87 23 -192 -42 -266 -61 -70 -124 -97 -234
-102 -108 -5 -174 12 -244 63 -117 85 -135 270 -36 373 89 92 233 126 367 86z"/>
<path d="M24125 1207 c-58 -19 -95 -40 -153 -86 -28 -23 -54 -41 -57 -41 -3 0
-5 27 -5 60 l0 60 -100 0 -100 0 0 -435 0 -435 105 0 105 0 0 265 c0 242 2
269 19 303 45 87 136 141 239 142 101 0 167 -37 203 -115 17 -36 19 -69 19
-317 l0 -278 105 0 105 0 0 278 c0 303 -10 380 -54 457 -32 53 -87 102 -145
128 -58 26 -224 34 -286 14z"/>
<path d="M21650 765 l0 -435 100 0 100 0 0 435 0 435 -100 0 -100 0 0 -435z"/>
<path d="M455 861 c-62 -26 -79 -102 -32 -149 l27 -27 6375 0 6375 0 27 27
c37 37 37 89 0 126 l-27 27 -6363 2 c-3499 1 -6371 -2 -6382 -6z"/>
</g>
</svg>
